<svg width="250" height="287" viewBox="0 0 250 287" fill="none" xmlns="http://www.w3.org/2000/svg">
<path d="M125.424 28.2404L172.977 55.7005L197.088 41.8182L125.424 0.414986L5.72019 69.5828L29.7097 83.465L125.424 28.2404Z" fill="white"/>
<path d="M221.079 55.7005L125.425 110.925L77.872 83.465L53.8216 97.3473L125.425 138.69L245.19 69.5828L221.079 55.7005Z" fill="white"/>
<path d="M24.9605 148.615L0.910103 134.733V217.417L120.614 286.585V258.821L24.9605 203.535V148.615Z" fill="white"/>
<path d="M0.910103 106.967L96.5638 162.192V217.112L120.614 231.055V148.309L0.910103 79.2023V106.967Z" fill="white"/>
<path d="M201.899 134.732V106.967L130.235 148.31V286.585L154.285 272.702V162.192L201.899 134.732Z" fill="white"/>
<path d="M225.889 93.0846V203.534L178.336 231.055V258.819L250 217.416V79.2023L225.889 93.0846Z" fill="white"/>
</svg>
