<svg width="88" height="88" viewBox="0 0 88 88" fill="none" xmlns="http://www.w3.org/2000/svg">
<path d="M77.5906 71.9063C82.0785 66.5067 85.1999 60.1055 86.6907 53.2444C88.1815 46.3833 87.9978 39.264 86.1553 32.4889C84.3127 25.7138 80.8655 19.4821 76.1052 14.321C71.3449 9.15986 65.4115 5.2212 58.8071 2.83817C52.2026 0.45514 45.1214 -0.302157 38.1624 0.630342C31.2034 1.56284 24.5713 4.15771 18.8272 8.19542C13.0832 12.2331 8.39609 17.5949 5.16248 23.8272C1.92887 30.0595 0.243867 36.9789 0.250017 44.0001C0.252377 54.2069 3.84922 64.0869 10.4094 71.9063L10.3469 71.9595C10.5656 72.222 10.8156 72.447 11.0406 72.7063C11.3219 73.0282 11.625 73.3313 11.9156 73.6438C12.7906 74.5938 13.6906 75.5063 14.6344 76.3626C14.9219 76.6251 15.2188 76.8688 15.5094 77.1188C16.5094 77.9813 17.5375 78.8001 18.6031 79.5626C18.7406 79.6563 18.8656 79.7782 19.0031 79.8751V79.8376C26.3222 84.9881 35.0535 87.7523 44.0031 87.7523C52.9528 87.7523 61.6841 84.9881 69.0031 79.8376V79.8751C69.1406 79.7782 69.2625 79.6563 69.4031 79.5626C70.4656 78.797 71.4969 77.9813 72.4969 77.1188C72.7875 76.8688 73.0844 76.622 73.3719 76.3626C74.3156 75.5032 75.2156 74.5938 76.0906 73.6438C76.3813 73.3313 76.6813 73.0282 76.9656 72.7063C77.1875 72.447 77.4406 72.222 77.6594 71.9563L77.5906 71.9063ZM44 19.0001C46.7813 19.0001 49.5002 19.8248 51.8127 21.3701C54.1253 22.9153 55.9277 25.1115 56.9921 27.6811C58.0564 30.2507 58.3349 33.0782 57.7923 35.8061C57.2497 38.5339 55.9104 41.0396 53.9437 43.0063C51.977 44.973 49.4713 46.3123 46.7435 46.8549C44.0156 47.3975 41.1881 47.119 38.6185 46.0546C36.0489 44.9903 33.8527 43.1879 32.3075 40.8753C30.7623 38.5627 29.9375 35.8439 29.9375 33.0626C29.9375 29.333 31.4191 25.7561 34.0563 23.1189C36.6936 20.4817 40.2704 19.0001 44 19.0001ZM19.0219 71.9063C19.0761 67.8031 20.7436 63.8862 23.6636 61.003C26.5837 58.1198 30.5214 56.5022 34.625 56.5001H53.375C57.4786 56.5022 61.4164 58.1198 64.3364 61.003C67.2564 63.8862 68.9239 67.8031 68.9781 71.9063C62.1245 78.0824 53.2258 81.5003 44 81.5003C34.7742 81.5003 25.8755 78.0824 19.0219 71.9063Z" fill="url(#paint0_linear)"/>
<defs>
<linearGradient id="paint0_linear" x1="43.9688" y1="0.243042" x2="43.9688" y2="87.7523" gradientUnits="userSpaceOnUse">
<stop stop-color="#003458"/>
<stop offset="1" stop-color="#F01159"/>
</linearGradient>
</defs>
</svg>
